# xmcd CD database file
#
# Track frame offsets:
#	182
#	15200
#	32150
#	49110
#	60200
#	72507
#	83322
#	94860
#	103862
#	116170
#	128225
#	143150
#	157155
#	165222
#
# Disc length: 2377 seconds
#
# Revision: 0
# Processed by: cddbd v1.4PL0 Copyright (c) Steve Scherf et al.
# Submitted via: Feurio! 1.64 - http://www.feurio.com
#
DISCID=ad09470e
DTITLE=Various Artist - Greatest Country Stars
DYEAR=1900
DGENRE=country
TTITLE0=Kenny Rogers - For the good times
TTITLE1=Lynn Anderson - Blue Bayou
TTITLE2=Willie Nelson - I let my mind wander
TTITLE3=Patsy Cline - I cried all the way to the altar
TTITLE4=Don Williams - On the way to be a woman
TTITLE5=Johnny Cash - Cold, cold heart
TTITLE6=Oak Ridge Boys - No one cared as much
TTITLE7=Waylon Jennings - Mean old greyhound bus
TTITLE8=Dolly Parton - Two little Orphans
TTITLE9=Lynn Anderson - You don't have to say you love me
TTITLE10=Willie Nelson - And so will you my love
TTITLE11=Billy Jo Spears - Mr. Walker, it's all over
TTITLE12=Freddy Finder - Wasted Days and wasted nights
TTITLE13=Kenny Rogers - Sleep comes easy
EXTD=
EXTT0=
EXTT1=
EXTT2=
EXTT3=
EXTT4=
EXTT5=
EXTT6=
EXTT7=
EXTT8=
EXTT9=
EXTT10=
EXTT11=
EXTT12=
EXTT13=
PLAYORDER=
